<svg xmlns="http://www.w3.org/2000/svg" version="1.1" xmlns:xlink="http://www.w3.org/1999/xlink" width="150" height="150"><svg xmlns="http://www.w3.org/2000/svg" version="1.1" xmlns:xlink="http://www.w3.org/1999/xlink" width="150" height="150"><svg width="150" height="150" viewBox="0 0 150 150" fill="none" xmlns="http://www.w3.org/2000/svg">
<path d="M142.061 115.719C141.64 116.425 141.085 117.04 140.426 117.53C139.768 118.02 139.02 118.375 138.225 118.574C137.43 118.773 136.604 118.812 135.794 118.689C134.984 118.567 134.206 118.285 133.505 117.859L80.7225 86.0391V143.75C80.7225 145.408 80.0669 146.997 78.9 148.169C77.733 149.342 76.1503 150 74.5 150C72.8497 150 71.267 149.342 70.1 148.169C68.9331 146.997 68.2775 145.408 68.2775 143.75V86.0391L15.4797 117.859C14.7787 118.292 13.9993 118.581 13.1865 118.709C12.3738 118.837 11.5438 118.801 10.7446 118.605C9.94549 118.409 9.19302 118.055 8.53076 117.565C7.8685 117.075 7.3096 116.458 6.88641 115.749C6.46321 115.04 6.18411 114.255 6.06527 113.437C5.94642 112.619 5.99019 111.786 6.19403 110.985C6.39787 110.185 6.75774 109.433 7.25282 108.773C7.7479 108.113 8.36836 107.558 9.0783 107.141L62.405 75L9.0783 42.8594C8.36836 42.4418 7.7479 41.887 7.25282 41.2271C6.75774 40.5671 6.39787 39.8151 6.19403 39.0145C5.99019 38.214 5.94642 37.3808 6.06527 36.5631C6.18411 35.7454 6.46321 34.9596 6.88641 34.2509C7.3096 33.5423 7.8685 32.925 8.53076 32.4348C9.19302 31.9445 9.94549 31.591 10.7446 31.3948C11.5438 31.1985 12.3738 31.1634 13.1865 31.2914C13.9993 31.4194 14.7787 31.7081 15.4797 32.1406L68.2775 63.9609V6.25C68.2775 4.5924 68.9331 3.00269 70.1 1.83058C71.267 0.658481 72.8497 0 74.5 0C76.1503 0 77.733 0.658481 78.9 1.83058C80.0669 3.00269 80.7225 4.5924 80.7225 6.25V63.9609L133.52 32.1406C134.221 31.7081 135.001 31.4194 135.813 31.2914C136.626 31.1634 137.456 31.1985 138.255 31.3948C139.055 31.591 139.807 31.9445 140.469 32.4348C141.132 32.925 141.69 33.5423 142.114 34.2509C142.537 34.9596 142.816 35.7454 142.935 36.5631C143.054 37.3808 143.01 38.214 142.806 39.0145C142.602 39.8151 142.242 40.5671 141.747 41.2271C141.252 41.887 140.632 42.4418 139.922 42.8594L86.595 75L139.922 107.141C140.623 107.563 141.235 108.119 141.722 108.779C142.21 109.438 142.563 110.188 142.761 110.984C142.96 111.781 143 112.609 142.88 113.422C142.76 114.234 142.481 115.015 142.061 115.719Z" fill="#0C0A09"></path>
</svg></svg><style>@media (prefers-color-scheme: light) { :root { filter: none; } }
@media (prefers-color-scheme: dark) { :root { filter: invert(100%); } }
</style></svg>